<?xml version="1.0" standalone="no"?>
<!DOCTYPE svg PUBLIC "-//W3C//DTD SVG 20010904//EN"
 "http://www.w3.org/TR/2001/REC-SVG-20010904/DTD/svg10.dtd">
<svg version="1.0" xmlns="http://www.w3.org/2000/svg"
 width="512.000000pt" height="512.000000pt" viewBox="0 0 512.000000 512.000000"
 preserveAspectRatio="xMidYMid meet">

<g transform="translate(0.000000,512.000000) scale(0.100000,-0.100000)"
fill="#000000" stroke="none">
<path d="M2315 5109 c-800 -83 -1501 -518 -1927 -1196 -604 -961 -490 -2237
274 -3068 425 -462 951 -737 1583 -827 119 -17 512 -16 635 1 622 86 1148 360
1572 820 349 378 572 862 650 1406 17 118 17 512 0 630 -59 416 -191 769 -410
1099 -92 140 -185 254 -315 385 -399 404 -893 653 -1462 737 -123 18 -478 26
-600 13z m633 -958 c168 -36 317 -92 455 -172 630 -367 912 -1112 682 -1805
-75 -225 -192 -412 -370 -590 -232 -232 -498 -371 -820 -426 -101 -17 -148
-19 -295 -15 -238 7 -394 42 -590 134 l-95 44 -400 -105 c-219 -58 -400 -104
-402 -103 -1 2 45 174 102 382 58 209 105 386 105 393 0 7 -20 55 -45 106
-173 361 -199 761 -75 1137 124 376 378 679 730 871 138 75 351 145 515 167
111 16 394 5 503 -18z"/>
<path d="M2423 3905 c-441 -81 -817 -398 -968 -815 -67 -187 -91 -424 -62
-616 26 -169 101 -369 184 -496 l26 -39 -63 -230 c-34 -126 -61 -231 -59 -233
2 -2 110 25 239 59 l235 62 60 -36 c271 -158 626 -208 934 -130 448 113 796
456 916 901 134 497 -55 1037 -470 1345 -147 109 -349 196 -530 227 -109 19
-339 19 -442 1z m-185 -569 c22 -29 152 -336 152 -361 0 -26 -29 -74 -82 -138
-56 -68 -56 -71 3 -159 111 -162 241 -275 416 -361 123 -59 116 -61 218 67 57
72 73 86 97 86 42 0 353 -152 368 -180 15 -28 -2 -135 -30 -191 -25 -47 -89
-100 -166 -136 -49 -23 -76 -28 -155 -31 -91 -4 -104 -1 -216 36 -248 83 -395
173 -579 357 -247 245 -393 495 -394 672 0 100 37 202 105 284 53 64 86 79
172 79 64 0 74 -3 91 -24z"/>
</g>
</svg>
